<mxfile host="app.diagrams.net" modified="2024-04-14T09:38:37.941Z" agent="Mozilla/5.0 (Macintosh; Intel Mac OS X 10.15; rv:124.0) Gecko/20100101 Firefox/124.0" etag="H11tIvXX8UKbtNP2i9DL" version="24.2.5" type="device">
  <diagram name="Page-1" id="2J35N453SNpHubdyhs9x">
    <mxGraphModel dx="3109" dy="1136" grid="1" gridSize="10" guides="1" tooltips="1" connect="1" arrows="1" fold="1" page="1" pageScale="1" pageWidth="850" pageHeight="1100" math="0" shadow="0">
      <root>
        <mxCell id="0" />
        <mxCell id="1" parent="0" />
        <mxCell id="BPkORcfGYbrXp2pcTOUs-1" value="Private" style="rounded=1;whiteSpace=wrap;html=1;fillColor=none;labelPosition=center;verticalLabelPosition=top;align=center;verticalAlign=bottom;" vertex="1" parent="1">
          <mxGeometry x="180" y="430" width="480" height="410" as="geometry" />
        </mxCell>
        <mxCell id="BPkORcfGYbrXp2pcTOUs-13" style="edgeStyle=orthogonalEdgeStyle;rounded=0;orthogonalLoop=1;jettySize=auto;html=1;" edge="1" parent="1" source="BPkORcfGYbrXp2pcTOUs-2" target="BPkORcfGYbrXp2pcTOUs-3">
          <mxGeometry relative="1" as="geometry" />
        </mxCell>
        <mxCell id="BPkORcfGYbrXp2pcTOUs-2" value="Cloudflare Tunnel" style="image;sketch=0;aspect=fixed;html=1;points=[];align=center;fontSize=12;image=img/lib/mscae/Docker.svg;" vertex="1" parent="1">
          <mxGeometry x="372.31" y="250" width="85.37" height="70" as="geometry" />
        </mxCell>
        <mxCell id="BPkORcfGYbrXp2pcTOUs-10" style="edgeStyle=orthogonalEdgeStyle;rounded=0;orthogonalLoop=1;jettySize=auto;html=1;" edge="1" parent="1" source="BPkORcfGYbrXp2pcTOUs-3" target="BPkORcfGYbrXp2pcTOUs-4">
          <mxGeometry relative="1" as="geometry" />
        </mxCell>
        <mxCell id="BPkORcfGYbrXp2pcTOUs-11" style="edgeStyle=orthogonalEdgeStyle;rounded=0;orthogonalLoop=1;jettySize=auto;html=1;" edge="1" parent="1" source="BPkORcfGYbrXp2pcTOUs-3" target="BPkORcfGYbrXp2pcTOUs-5">
          <mxGeometry relative="1" as="geometry" />
        </mxCell>
        <mxCell id="BPkORcfGYbrXp2pcTOUs-3" value="&lt;div&gt;Frontend&lt;/div&gt;&lt;div&gt;(ReactJS)&lt;br&gt;&lt;/div&gt;" style="image;sketch=0;aspect=fixed;html=1;points=[];align=center;fontSize=12;image=img/lib/mscae/Docker.svg;" vertex="1" parent="1">
          <mxGeometry x="390" y="470" width="50" height="41" as="geometry" />
        </mxCell>
        <mxCell id="BPkORcfGYbrXp2pcTOUs-9" style="edgeStyle=orthogonalEdgeStyle;rounded=0;orthogonalLoop=1;jettySize=auto;html=1;" edge="1" parent="1" source="BPkORcfGYbrXp2pcTOUs-4" target="BPkORcfGYbrXp2pcTOUs-6">
          <mxGeometry relative="1" as="geometry" />
        </mxCell>
        <mxCell id="BPkORcfGYbrXp2pcTOUs-4" value="&lt;div&gt;Backend&lt;/div&gt;&lt;div&gt;(Python - FastAPI)&lt;br&gt;&lt;/div&gt;" style="image;sketch=0;aspect=fixed;html=1;points=[];align=center;fontSize=12;image=img/lib/mscae/Docker.svg;" vertex="1" parent="1">
          <mxGeometry x="220" y="580" width="50" height="41" as="geometry" />
        </mxCell>
        <mxCell id="BPkORcfGYbrXp2pcTOUs-8" style="edgeStyle=orthogonalEdgeStyle;rounded=0;orthogonalLoop=1;jettySize=auto;html=1;" edge="1" parent="1" source="BPkORcfGYbrXp2pcTOUs-5" target="BPkORcfGYbrXp2pcTOUs-7">
          <mxGeometry relative="1" as="geometry" />
        </mxCell>
        <mxCell id="BPkORcfGYbrXp2pcTOUs-5" value="&lt;div&gt;Auth&lt;/div&gt;&lt;div&gt;(Python - Supabase)&lt;br&gt;&lt;/div&gt;" style="image;sketch=0;aspect=fixed;html=1;points=[];align=center;fontSize=12;image=img/lib/mscae/Docker.svg;" vertex="1" parent="1">
          <mxGeometry x="560" y="580" width="50" height="41" as="geometry" />
        </mxCell>
        <mxCell id="BPkORcfGYbrXp2pcTOUs-6" value="&lt;div&gt;Entities DB&lt;/div&gt;&lt;div&gt;(Postgres)&lt;br&gt;&lt;/div&gt;" style="image;aspect=fixed;html=1;points=[];align=center;fontSize=12;image=img/lib/azure2/databases/Azure_Database_PostgreSQL_Server.svg;" vertex="1" parent="1">
          <mxGeometry x="221" y="710" width="48" height="64" as="geometry" />
        </mxCell>
        <mxCell id="BPkORcfGYbrXp2pcTOUs-7" value="&lt;div&gt;Users DB&lt;br&gt;&lt;/div&gt;&lt;div&gt;(Postgres)&lt;br&gt;&lt;/div&gt;" style="image;aspect=fixed;html=1;points=[];align=center;fontSize=12;image=img/lib/azure2/databases/Azure_Database_PostgreSQL_Server.svg;" vertex="1" parent="1">
          <mxGeometry x="561" y="710" width="48" height="64" as="geometry" />
        </mxCell>
      </root>
    </mxGraphModel>
  </diagram>
</mxfile>
